<svg xmlns="http://www.w3.org/2000/svg" width="2880" height="430" viewBox="0 0 2880 430" fill="none">
  <!-- Ribbons, not water: a closed outline whose two edges pull apart
       through the middle and close to nothing at either end, which is how
       the thickness tapers - a stroke cannot. Both ends fade out too, so
       there is no edge to catch however far they travel.
       Several to a file on purpose. Each of these is a translucent layer
       the compositor blends every frame, and the cost is in how many there
       are rather than what is in them: three files cost forty percent of
       the frames during a pointer sweep, one cost two. -->
  <defs>
    <linearGradient id="a0" x1="0" y1="0" x2="2880" y2="0" gradientUnits="userSpaceOnUse"><stop offset="0" stop-color="#FFFFFF" stop-opacity="0"/><stop offset="0.3" stop-color="#FFFFFF" stop-opacity="0.170"/><stop offset="0.66" stop-color="#DCEBFF" stop-opacity="0.128"/><stop offset="1" stop-color="#DCEBFF" stop-opacity="0"/></linearGradient>
    <linearGradient id="a1" x1="0" y1="0" x2="2880" y2="0" gradientUnits="userSpaceOnUse"><stop offset="0" stop-color="#EAF3FF" stop-opacity="0"/><stop offset="0.3" stop-color="#EAF3FF" stop-opacity="0.140"/><stop offset="0.66" stop-color="#FFFFFF" stop-opacity="0.105"/><stop offset="1" stop-color="#FFFFFF" stop-opacity="0"/></linearGradient>
    <linearGradient id="a2" x1="0" y1="0" x2="2880" y2="0" gradientUnits="userSpaceOnUse"><stop offset="0" stop-color="#FFFFFF" stop-opacity="0"/><stop offset="0.3" stop-color="#FFFFFF" stop-opacity="0.120"/><stop offset="0.66" stop-color="#FFFFFF" stop-opacity="0.090"/><stop offset="1" stop-color="#FFFFFF" stop-opacity="0"/></linearGradient>
    <linearGradient id="a3" x1="0" y1="0" x2="2880" y2="0" gradientUnits="userSpaceOnUse"><stop offset="0" stop-color="#CFE4FF" stop-opacity="0"/><stop offset="0.3" stop-color="#CFE4FF" stop-opacity="0.150"/><stop offset="0.66" stop-color="#FFFFFF" stop-opacity="0.112"/><stop offset="1" stop-color="#FFFFFF" stop-opacity="0"/></linearGradient>
    <linearGradient id="a4" x1="0" y1="0" x2="2880" y2="0" gradientUnits="userSpaceOnUse"><stop offset="0" stop-color="#FFFFFF" stop-opacity="0"/><stop offset="0.3" stop-color="#FFFFFF" stop-opacity="0.110"/><stop offset="0.66" stop-color="#E8F2FF" stop-opacity="0.083"/><stop offset="1" stop-color="#E8F2FF" stop-opacity="0"/></linearGradient>
  </defs>
  <path d="M0.0 178.8 L18.0 182.4 L36.1 185.8 L54.1 189.1 L72.1 192.2 L90.2 195.2 L108.2 198.1 L126.3 200.8 L144.3 203.3 L162.3 205.6 L180.3 207.7 L198.3 209.7 L216.4 211.5 L234.3 213.0 L252.3 214.4 L270.3 215.5 L288.3 216.4 L306.3 217.1 L324.2 217.6 L342.2 217.8 L360.1 217.8 L378.0 217.6 L395.9 217.2 L413.8 216.5 L431.7 215.6 L449.6 214.5 L467.5 213.2 L485.4 211.6 L503.2 209.8 L521.1 207.9 L539.0 205.7 L556.8 203.3 L574.7 200.7 L592.5 197.9 L610.3 195.0 L628.2 191.9 L646.0 188.6 L663.8 185.2 L681.7 181.6 L699.5 177.9 L717.3 174.1 L735.2 170.2 L753.0 166.1 L770.9 162.0 L788.7 157.7 L806.6 153.5 L824.5 149.1 L842.4 144.7 L860.3 140.3 L878.2 135.9 L896.1 131.4 L914.0 127.0 L931.9 122.5 L949.9 118.1 L967.9 113.8 L985.8 109.5 L1003.8 105.3 L1021.9 101.1 L1039.9 97.0 L1057.9 93.1 L1076.0 89.2 L1094.1 85.5 L1112.2 81.9 L1130.3 78.5 L1148.4 75.2 L1166.6 72.1 L1184.8 69.2 L1203.0 66.4 L1221.2 63.9 L1239.4 61.5 L1257.6 59.4 L1275.9 57.4 L1294.1 55.7 L1312.4 54.2 L1330.7 53.0 L1349.0 51.9 L1367.3 51.1 L1385.6 50.6 L1403.9 50.3 L1422.3 50.2 L1440.6 50.4 L1458.9 50.8 L1477.2 51.4 L1495.6 52.3 L1513.9 53.5 L1532.2 54.8 L1550.5 56.4 L1568.8 58.2 L1587.1 60.2 L1605.4 62.4 L1623.6 64.9 L1641.9 67.5 L1660.1 70.3 L1678.3 73.3 L1696.5 76.4 L1714.7 79.7 L1732.9 83.2 L1751.0 86.8 L1769.2 90.5 L1787.3 94.3 L1805.3 98.3 L1823.4 102.3 L1841.5 106.4 L1859.5 110.6 L1877.5 114.8 L1895.5 119.1 L1913.4 123.4 L1931.4 127.7 L1949.3 132.1 L1967.2 136.4 L1985.1 140.7 L2003.0 145.0 L2020.9 149.2 L2038.7 153.4 L2056.5 157.5 L2074.3 161.5 L2092.2 165.5 L2109.9 169.3 L2127.7 173.1 L2145.5 176.7 L2163.3 180.2 L2181.1 183.5 L2198.8 186.7 L2216.6 189.8 L2234.3 192.6 L2252.1 195.3 L2269.9 197.9 L2287.6 200.2 L2305.4 202.4 L2323.2 204.3 L2340.9 206.0 L2358.7 207.6 L2376.5 208.9 L2394.4 210.0 L2412.2 210.9 L2430.0 211.6 L2447.9 212.1 L2465.7 212.3 L2483.6 212.3 L2501.5 212.1 L2519.4 211.7 L2537.3 211.1 L2555.3 210.2 L2573.2 209.2 L2591.2 207.9 L2609.2 206.4 L2627.2 204.8 L2645.2 202.9 L2663.2 200.9 L2681.3 198.7 L2699.3 196.3 L2717.4 193.7 L2735.4 191.0 L2753.5 188.1 L2771.6 185.1 L2789.6 182.0 L2807.7 178.7 L2825.8 175.4 L2843.9 171.9 L2861.9 168.3 L2880.0 164.5 L2880.0 164.5 L2862.1 168.7 L2844.1 173.0 L2826.2 177.2 L2808.3 181.4 L2790.4 185.5 L2772.4 189.5 L2754.5 193.4 L2736.6 197.3 L2718.6 201.0 L2700.7 204.5 L2682.7 208.0 L2664.8 211.3 L2646.8 214.4 L2628.8 217.3 L2610.8 220.1 L2592.8 222.7 L2574.8 225.0 L2556.7 227.2 L2538.7 229.2 L2520.6 230.9 L2502.5 232.5 L2484.4 233.8 L2466.3 234.9 L2448.1 235.8 L2430.0 236.4 L2411.8 236.8 L2393.6 237.0 L2375.5 236.9 L2357.3 236.6 L2339.1 236.1 L2320.8 235.4 L2302.6 234.4 L2284.4 233.2 L2266.1 231.8 L2247.9 230.2 L2229.7 228.4 L2211.4 226.4 L2193.2 224.2 L2174.9 221.9 L2156.7 219.3 L2138.5 216.6 L2120.3 213.7 L2102.1 210.7 L2083.8 207.6 L2065.7 204.3 L2047.5 201.0 L2029.3 197.5 L2011.1 193.9 L1993.0 190.3 L1974.9 186.6 L1956.8 182.8 L1938.7 179.0 L1920.6 175.2 L1902.6 171.4 L1884.5 167.5 L1866.5 163.7 L1848.5 159.9 L1830.5 156.1 L1812.6 152.4 L1794.7 148.7 L1776.7 145.1 L1758.8 141.6 L1741.0 138.2 L1723.1 134.9 L1705.3 131.7 L1687.5 128.6 L1669.7 125.6 L1651.9 122.8 L1634.1 120.1 L1616.4 117.6 L1598.6 115.2 L1580.9 113.0 L1563.2 111.0 L1545.5 109.2 L1527.8 107.6 L1510.1 106.1 L1492.4 104.9 L1474.8 103.8 L1457.1 103.0 L1439.4 102.4 L1421.7 101.9 L1404.1 101.7 L1386.4 101.7 L1368.7 101.9 L1351.0 102.3 L1333.3 102.9 L1315.6 103.7 L1297.9 104.8 L1280.1 106.0 L1262.4 107.4 L1244.6 109.0 L1226.8 110.8 L1209.0 112.8 L1191.2 114.9 L1173.4 117.2 L1155.6 119.7 L1137.7 122.4 L1119.8 125.1 L1101.9 128.0 L1084.0 131.1 L1066.1 134.2 L1048.1 137.5 L1030.1 140.8 L1012.2 144.3 L994.2 147.8 L976.1 151.4 L958.1 155.0 L940.1 158.7 L922.0 162.4 L903.9 166.1 L885.8 169.8 L867.7 173.5 L849.6 177.2 L831.5 180.8 L813.4 184.4 L795.3 188.0 L777.1 191.5 L759.0 194.8 L740.8 198.1 L722.7 201.3 L704.5 204.4 L686.3 207.4 L668.2 210.2 L650.0 212.9 L631.8 215.4 L613.7 217.7 L595.5 219.9 L577.3 221.9 L559.2 223.7 L541.0 225.3 L522.9 226.7 L504.8 227.9 L486.6 228.9 L468.5 229.7 L450.4 230.3 L432.3 230.7 L414.2 230.8 L396.1 230.7 L378.0 230.4 L359.9 229.8 L341.8 229.1 L323.8 228.1 L305.7 226.9 L287.7 225.5 L269.7 223.9 L251.7 222.1 L233.7 220.0 L215.6 217.8 L197.7 215.4 L179.7 212.8 L161.7 210.0 L143.7 207.1 L125.7 204.0 L107.8 200.7 L89.8 197.3 L71.9 193.8 L53.9 190.2 L35.9 186.5 L18.0 182.7 L0.0 178.8 Z" fill="url(#a0)"/>
  <path d="M0.0 252.2 L18.0 249.3 L36.0 246.1 L53.9 242.7 L71.9 239.2 L89.9 235.5 L107.8 231.7 L125.8 227.7 L143.7 223.6 L161.7 219.4 L179.6 215.2 L197.6 210.9 L215.5 206.6 L233.5 202.3 L251.4 197.9 L269.4 193.6 L287.3 189.4 L305.3 185.1 L323.3 181.0 L341.2 177.0 L359.2 173.0 L377.2 169.2 L395.2 165.6 L413.2 162.1 L431.2 158.7 L449.2 155.6 L467.2 152.7 L485.3 149.9 L503.3 147.5 L521.4 145.2 L539.4 143.2 L557.5 141.4 L575.6 139.9 L593.7 138.7 L611.8 137.7 L629.9 137.0 L648.0 136.6 L666.1 136.5 L684.2 136.6 L702.3 137.1 L720.5 137.8 L738.6 138.8 L756.7 140.0 L774.9 141.5 L793.0 143.3 L811.1 145.3 L829.3 147.5 L847.4 150.0 L865.5 152.7 L883.6 155.5 L901.7 158.6 L919.8 161.8 L937.9 165.2 L956.0 168.8 L974.1 172.4 L992.2 176.2 L1010.2 180.1 L1028.3 184.0 L1046.3 188.0 L1064.4 192.0 L1082.4 196.1 L1100.4 200.1 L1118.4 204.2 L1136.4 208.2 L1154.4 212.1 L1172.3 216.0 L1190.3 219.8 L1208.2 223.4 L1226.1 227.0 L1244.1 230.4 L1262.0 233.7 L1279.9 236.8 L1297.7 239.7 L1315.6 242.5 L1333.5 245.0 L1351.4 247.3 L1369.2 249.4 L1387.1 251.3 L1404.9 252.9 L1422.7 254.2 L1440.6 255.4 L1458.4 256.2 L1476.2 256.8 L1494.1 257.1 L1511.9 257.2 L1529.8 257.0 L1547.6 256.5 L1565.4 255.8 L1583.3 254.8 L1601.1 253.5 L1619.0 252.0 L1636.9 250.2 L1654.8 248.3 L1672.7 246.1 L1690.6 243.6 L1708.5 241.0 L1726.4 238.2 L1744.3 235.2 L1762.2 232.0 L1780.2 228.6 L1798.2 225.2 L1816.1 221.6 L1834.1 217.9 L1852.1 214.1 L1870.1 210.2 L1888.1 206.3 L1906.1 202.4 L1924.2 198.4 L1942.2 194.4 L1960.2 190.4 L1978.3 186.5 L1996.4 182.6 L2014.4 178.8 L2032.5 175.1 L2050.6 171.5 L2068.6 168.0 L2086.7 164.7 L2104.8 161.5 L2122.9 158.5 L2141.0 155.7 L2159.1 153.0 L2177.2 150.6 L2195.3 148.4 L2213.4 146.4 L2231.5 144.7 L2249.6 143.2 L2267.6 141.9 L2285.7 141.0 L2303.8 140.3 L2321.9 139.8 L2340.0 139.7 L2358.0 139.8 L2376.1 140.2 L2394.1 140.8 L2412.2 141.8 L2430.2 143.0 L2448.3 144.4 L2466.3 146.2 L2484.3 148.1 L2502.3 150.4 L2520.4 152.8 L2538.4 155.5 L2556.4 158.3 L2574.4 161.4 L2592.4 164.7 L2610.3 168.1 L2628.3 171.7 L2646.3 175.4 L2664.3 179.3 L2682.3 183.3 L2700.2 187.3 L2718.2 191.4 L2736.2 195.6 L2754.2 199.9 L2772.1 204.1 L2790.1 208.3 L2808.1 212.6 L2826.1 216.8 L2844.0 220.9 L2862.0 224.9 L2880.0 228.9 L2880.0 228.9 L2862.0 225.1 L2844.0 221.2 L2825.9 217.3 L2807.9 213.3 L2789.9 209.3 L2771.9 205.3 L2753.8 201.3 L2735.8 197.3 L2717.8 193.4 L2699.8 189.6 L2681.7 185.8 L2663.7 182.1 L2645.7 178.6 L2627.7 175.1 L2609.7 171.8 L2591.6 168.7 L2573.6 165.8 L2555.6 163.0 L2537.6 160.5 L2519.6 158.2 L2501.7 156.0 L2483.7 154.2 L2465.7 152.5 L2447.7 151.2 L2429.8 150.0 L2411.8 149.2 L2393.9 148.6 L2375.9 148.3 L2358.0 148.2 L2340.0 148.5 L2322.1 149.0 L2304.2 149.7 L2286.3 150.8 L2268.4 152.1 L2250.4 153.7 L2232.5 155.5 L2214.6 157.5 L2196.7 159.8 L2178.8 162.4 L2160.9 165.1 L2143.0 168.1 L2125.1 171.2 L2107.2 174.6 L2089.3 178.1 L2071.4 181.7 L2053.4 185.5 L2035.5 189.4 L2017.6 193.4 L1999.6 197.5 L1981.7 201.7 L1963.8 205.9 L1945.8 210.1 L1927.8 214.4 L1909.9 218.7 L1891.9 222.9 L1873.9 227.1 L1855.9 231.3 L1837.9 235.3 L1819.9 239.3 L1801.8 243.2 L1783.8 247.0 L1765.8 250.6 L1747.7 254.0 L1729.6 257.3 L1711.5 260.4 L1693.4 263.2 L1675.3 265.9 L1657.2 268.4 L1639.1 270.6 L1621.0 272.5 L1602.9 274.2 L1584.7 275.7 L1566.6 276.9 L1548.4 277.8 L1530.2 278.4 L1512.1 278.7 L1493.9 278.8 L1475.8 278.6 L1457.6 278.1 L1439.4 277.3 L1421.3 276.3 L1403.1 275.0 L1384.9 273.4 L1366.8 271.5 L1348.6 269.4 L1330.5 267.1 L1312.4 264.6 L1294.3 261.8 L1276.1 258.8 L1258.0 255.7 L1239.9 252.3 L1221.9 248.8 L1203.8 245.2 L1185.7 241.4 L1167.7 237.5 L1149.6 233.5 L1131.6 229.5 L1113.6 225.3 L1095.6 221.2 L1077.6 217.0 L1059.6 212.8 L1041.7 208.6 L1023.7 204.4 L1005.8 200.3 L987.8 196.3 L969.9 192.4 L952.0 188.5 L934.1 184.8 L916.2 181.2 L898.3 177.7 L880.4 174.4 L862.5 171.3 L844.6 168.3 L826.7 165.6 L808.9 163.1 L791.0 160.8 L773.1 158.7 L755.3 156.9 L737.4 155.4 L719.5 154.0 L701.7 153.0 L683.8 152.2 L665.9 151.7 L648.0 151.4 L630.1 151.4 L612.2 151.7 L594.3 152.2 L576.4 153.0 L558.5 154.1 L540.6 155.4 L522.6 157.0 L504.7 158.8 L486.7 160.9 L468.8 163.1 L450.8 165.6 L432.8 168.3 L414.8 171.1 L396.8 174.2 L378.8 177.4 L360.8 180.7 L342.8 184.2 L324.7 187.8 L306.7 191.5 L288.7 195.2 L270.6 199.1 L252.6 202.9 L234.5 206.8 L216.5 210.8 L198.4 214.7 L180.4 218.5 L162.3 222.4 L144.3 226.1 L126.2 229.8 L108.2 233.4 L90.1 236.9 L72.1 240.3 L54.1 243.5 L36.0 246.6 L18.0 249.5 L0.0 252.2 Z" fill="url(#a1)"/>
  <path d="M0.0 54.3 L18.0 54.1 L36.0 53.9 L54.0 53.8 L72.0 53.9 L90.0 54.1 L108.0 54.4 L126.0 54.8 L144.0 55.3 L162.0 56.0 L180.0 56.7 L198.1 57.6 L216.1 58.6 L234.1 59.7 L252.1 60.8 L270.1 62.1 L288.1 63.5 L306.1 65.0 L324.2 66.5 L342.2 68.2 L360.2 69.9 L378.2 71.7 L396.2 73.6 L414.3 75.5 L432.3 77.5 L450.3 79.6 L468.3 81.7 L486.3 83.9 L504.4 86.1 L522.4 88.3 L540.4 90.6 L558.4 92.9 L576.4 95.2 L594.5 97.6 L612.5 99.9 L630.5 102.3 L648.5 104.6 L666.5 106.9 L684.5 109.3 L702.5 111.5 L720.5 113.8 L738.6 116.0 L756.6 118.2 L774.6 120.4 L792.6 122.5 L810.6 124.5 L828.6 126.5 L846.5 128.4 L864.5 130.3 L882.5 132.1 L900.5 133.8 L918.5 135.4 L936.5 136.9 L954.5 138.4 L972.4 139.7 L990.4 141.0 L1008.4 142.1 L1026.3 143.1 L1044.3 144.1 L1062.3 144.9 L1080.2 145.6 L1098.2 146.2 L1116.2 146.7 L1134.1 147.1 L1152.1 147.3 L1170.1 147.5 L1188.0 147.5 L1206.0 147.4 L1223.9 147.2 L1241.9 146.9 L1259.8 146.4 L1277.8 145.9 L1295.7 145.2 L1313.7 144.4 L1331.6 143.5 L1349.6 142.5 L1367.6 141.4 L1385.5 140.2 L1403.5 138.8 L1421.4 137.4 L1439.4 135.9 L1457.4 134.3 L1475.3 132.6 L1493.3 130.9 L1511.3 129.0 L1529.2 127.1 L1547.2 125.1 L1565.2 123.0 L1583.2 120.9 L1601.1 118.7 L1619.1 116.5 L1637.1 114.3 L1655.1 112.0 L1673.1 109.6 L1691.1 107.3 L1709.1 104.9 L1727.1 102.5 L1745.1 100.1 L1763.1 97.7 L1781.1 95.3 L1799.1 92.9 L1817.1 90.5 L1835.1 88.1 L1853.2 85.8 L1871.2 83.5 L1889.2 81.2 L1907.2 79.0 L1925.2 76.8 L1943.3 74.7 L1961.3 72.6 L1979.3 70.6 L1997.4 68.7 L2015.4 66.8 L2033.4 65.0 L2051.5 63.3 L2069.5 61.7 L2087.5 60.2 L2105.6 58.8 L2123.6 57.5 L2141.6 56.3 L2159.7 55.1 L2177.7 54.1 L2195.8 53.3 L2213.8 52.5 L2231.8 51.8 L2249.9 51.3 L2267.9 50.9 L2285.9 50.5 L2303.9 50.4 L2322.0 50.3 L2340.0 50.4 L2358.0 50.5 L2376.0 50.9 L2394.1 51.3 L2412.1 51.8 L2430.1 52.5 L2448.1 53.3 L2466.1 54.2 L2484.1 55.2 L2502.1 56.3 L2520.1 57.6 L2538.2 58.9 L2556.2 60.3 L2574.2 61.9 L2592.2 63.5 L2610.1 65.3 L2628.1 67.1 L2646.1 69.0 L2664.1 71.0 L2682.1 73.0 L2700.1 75.2 L2718.1 77.4 L2736.1 79.6 L2754.1 81.9 L2772.1 84.3 L2790.1 86.7 L2808.0 89.1 L2826.0 91.6 L2844.0 94.1 L2862.0 96.6 L2880.0 99.1 L2880.0 99.1 L2862.0 96.7 L2844.0 94.3 L2826.0 92.0 L2808.0 89.8 L2789.9 87.5 L2771.9 85.3 L2753.9 83.2 L2735.9 81.1 L2717.9 79.1 L2699.9 77.2 L2681.9 75.3 L2663.9 73.5 L2645.9 71.7 L2627.9 70.1 L2609.9 68.5 L2591.8 67.0 L2573.8 65.7 L2555.8 64.4 L2537.8 63.2 L2519.9 62.1 L2501.9 61.2 L2483.9 60.3 L2465.9 59.6 L2447.9 59.0 L2429.9 58.4 L2411.9 58.0 L2393.9 57.8 L2376.0 57.6 L2358.0 57.6 L2340.0 57.6 L2322.0 57.8 L2304.1 58.2 L2286.1 58.6 L2268.1 59.1 L2250.1 59.8 L2232.2 60.6 L2214.2 61.5 L2196.2 62.5 L2178.3 63.6 L2160.3 64.8 L2142.4 66.2 L2124.4 67.6 L2106.4 69.1 L2088.5 70.8 L2070.5 72.5 L2052.5 74.3 L2034.6 76.2 L2016.6 78.1 L1998.6 80.1 L1980.7 82.3 L1962.7 84.4 L1944.7 86.6 L1926.8 88.9 L1908.8 91.2 L1890.8 93.6 L1872.8 96.0 L1854.8 98.5 L1836.9 100.9 L1818.9 103.4 L1800.9 105.9 L1782.9 108.4 L1764.9 110.9 L1746.9 113.4 L1728.9 115.9 L1710.9 118.4 L1692.9 120.9 L1674.9 123.3 L1656.9 125.7 L1638.9 128.0 L1620.9 130.3 L1602.9 132.6 L1584.8 134.8 L1566.8 137.0 L1548.8 139.0 L1530.8 141.0 L1512.7 143.0 L1494.7 144.8 L1476.7 146.6 L1458.6 148.3 L1440.6 149.9 L1422.6 151.3 L1404.5 152.7 L1386.5 154.0 L1368.4 155.2 L1350.4 156.2 L1332.4 157.2 L1314.3 158.0 L1296.3 158.7 L1278.2 159.3 L1260.2 159.8 L1242.1 160.2 L1224.1 160.4 L1206.0 160.5 L1188.0 160.5 L1169.9 160.3 L1151.9 160.1 L1133.9 159.7 L1115.8 159.2 L1097.8 158.6 L1079.8 157.8 L1061.7 156.9 L1043.7 156.0 L1025.7 154.9 L1007.6 153.6 L989.6 152.3 L971.6 150.9 L953.5 149.4 L935.5 147.8 L917.5 146.0 L899.5 144.2 L881.5 142.3 L863.5 140.4 L845.5 138.3 L827.4 136.2 L809.4 134.0 L791.4 131.7 L773.4 129.4 L755.4 127.0 L737.4 124.6 L719.5 122.2 L701.5 119.7 L683.5 117.2 L665.5 114.6 L647.5 112.1 L629.5 109.5 L611.5 106.9 L593.5 104.4 L575.6 101.8 L557.6 99.3 L539.6 96.7 L521.6 94.2 L503.6 91.7 L485.7 89.3 L467.7 86.9 L449.7 84.6 L431.7 82.3 L413.7 80.0 L395.8 77.8 L377.8 75.7 L359.8 73.7 L341.8 71.7 L323.8 69.9 L305.9 68.1 L287.9 66.4 L269.9 64.8 L251.9 63.3 L233.9 61.9 L215.9 60.6 L197.9 59.4 L180.0 58.4 L162.0 57.4 L144.0 56.6 L126.0 55.9 L108.0 55.3 L90.0 54.8 L72.0 54.4 L54.0 54.2 L36.0 54.1 L18.0 54.1 L0.0 54.3 Z" fill="url(#a2)"/>
  <path d="M0.0 325.8 L18.0 325.7 L36.0 325.2 L54.0 324.5 L72.0 323.6 L89.9 322.4 L107.9 321.0 L125.8 319.4 L143.7 317.6 L161.6 315.6 L179.5 313.4 L197.4 311.0 L215.2 308.4 L233.1 305.6 L250.9 302.7 L268.7 299.6 L286.6 296.3 L304.4 292.9 L322.2 289.3 L339.9 285.6 L357.7 281.8 L375.5 277.8 L393.3 273.7 L411.1 269.5 L428.8 265.3 L446.6 260.9 L464.4 256.4 L482.2 251.9 L500.0 247.3 L517.7 242.7 L535.5 238.0 L553.3 233.3 L571.2 228.5 L589.0 223.8 L606.8 219.0 L624.7 214.2 L642.5 209.4 L660.4 204.7 L678.3 200.0 L696.2 195.3 L714.2 190.7 L732.1 186.2 L750.1 181.7 L768.1 177.3 L786.1 172.9 L804.1 168.7 L822.2 164.6 L840.3 160.6 L858.3 156.7 L876.5 152.9 L894.6 149.3 L912.8 145.8 L930.9 142.5 L949.1 139.3 L967.4 136.4 L985.6 133.5 L1003.9 130.9 L1022.1 128.4 L1040.4 126.2 L1058.7 124.1 L1077.0 122.2 L1095.4 120.6 L1113.7 119.1 L1132.1 117.9 L1150.4 116.8 L1168.8 116.0 L1187.2 115.4 L1205.6 115.0 L1223.9 114.9 L1242.3 114.9 L1260.7 115.2 L1279.1 115.7 L1297.4 116.4 L1315.8 117.3 L1334.2 118.5 L1352.5 119.8 L1370.9 121.4 L1389.2 123.1 L1407.5 125.1 L1425.8 127.2 L1444.1 129.6 L1462.4 132.1 L1480.6 134.8 L1498.9 137.7 L1517.1 140.7 L1535.3 143.9 L1553.5 147.2 L1571.7 150.7 L1589.8 154.3 L1607.9 158.1 L1626.0 162.0 L1644.1 165.9 L1662.2 170.0 L1680.3 174.2 L1698.3 178.4 L1716.3 182.8 L1734.3 187.2 L1752.3 191.6 L1770.2 196.1 L1788.2 200.6 L1806.1 205.2 L1824.0 209.8 L1841.9 214.4 L1859.8 219.0 L1877.7 223.5 L1895.5 228.1 L1913.4 232.6 L1931.2 237.1 L1949.0 241.6 L1966.9 246.0 L1984.7 250.3 L2002.5 254.6 L2020.3 258.7 L2038.1 262.8 L2055.9 266.8 L2073.6 270.7 L2091.4 274.4 L2109.2 278.1 L2127.0 281.6 L2144.8 284.9 L2162.5 288.2 L2180.3 291.3 L2198.1 294.2 L2215.9 297.0 L2233.7 299.6 L2251.5 302.0 L2269.3 304.3 L2287.1 306.4 L2305.0 308.3 L2322.8 310.0 L2340.6 311.5 L2358.5 312.8 L2376.3 314.0 L2394.2 314.9 L2412.1 315.7 L2430.0 316.2 L2447.9 316.6 L2465.8 316.7 L2483.7 316.7 L2501.6 316.5 L2519.6 316.0 L2537.5 315.4 L2555.5 314.6 L2573.5 313.6 L2591.5 312.3 L2609.5 311.0 L2627.5 309.4 L2645.5 307.6 L2663.5 305.7 L2681.5 303.6 L2699.5 301.4 L2717.6 299.0 L2735.6 296.4 L2753.7 293.7 L2771.7 290.9 L2789.8 287.9 L2807.8 284.8 L2825.9 281.5 L2843.9 278.2 L2862.0 274.7 L2880.0 271.0 L2880.0 271.0 L2862.0 275.0 L2844.1 279.0 L2826.1 282.9 L2808.2 286.7 L2790.2 290.5 L2772.3 294.1 L2754.3 297.6 L2736.4 301.1 L2718.4 304.4 L2700.5 307.5 L2682.5 310.6 L2664.5 313.5 L2646.5 316.2 L2628.5 318.8 L2610.5 321.2 L2592.5 323.5 L2574.5 325.6 L2556.5 327.5 L2538.5 329.2 L2520.4 330.8 L2502.4 332.2 L2484.3 333.3 L2466.2 334.3 L2448.1 335.2 L2430.0 335.8 L2411.9 336.2 L2393.8 336.4 L2375.7 336.5 L2357.5 336.3 L2339.4 335.9 L2321.2 335.4 L2303.0 334.7 L2284.9 333.8 L2266.7 332.7 L2248.5 331.4 L2230.3 330.0 L2212.1 328.4 L2193.9 326.6 L2175.7 324.6 L2157.5 322.5 L2139.2 320.3 L2121.0 317.9 L2102.8 315.4 L2084.6 312.7 L2066.4 309.9 L2048.1 307.0 L2029.9 304.0 L2011.7 300.8 L1993.5 297.6 L1975.3 294.3 L1957.1 290.9 L1939.0 287.5 L1920.8 284.0 L1902.6 280.4 L1884.5 276.8 L1866.3 273.1 L1848.2 269.4 L1830.1 265.7 L1812.0 262.0 L1793.9 258.3 L1775.8 254.7 L1757.8 251.0 L1739.7 247.3 L1721.7 243.7 L1703.7 240.1 L1685.7 236.6 L1667.7 233.2 L1649.8 229.8 L1631.9 226.5 L1614.0 223.3 L1596.1 220.1 L1578.2 217.1 L1560.3 214.1 L1542.5 211.3 L1524.7 208.6 L1506.9 206.0 L1489.1 203.6 L1471.4 201.3 L1453.6 199.1 L1435.9 197.1 L1418.2 195.2 L1400.5 193.5 L1382.8 191.9 L1365.1 190.5 L1347.5 189.2 L1329.8 188.1 L1312.2 187.2 L1294.6 186.4 L1276.9 185.9 L1259.3 185.4 L1241.7 185.2 L1224.1 185.1 L1206.4 185.2 L1188.8 185.5 L1171.2 185.9 L1153.6 186.6 L1135.9 187.3 L1118.3 188.3 L1100.6 189.4 L1083.0 190.6 L1065.3 192.1 L1047.6 193.7 L1029.9 195.4 L1012.1 197.3 L994.4 199.3 L976.6 201.4 L958.9 203.7 L941.1 206.2 L923.2 208.7 L905.4 211.4 L887.5 214.1 L869.7 217.0 L851.7 220.0 L833.8 223.0 L815.9 226.2 L797.9 229.4 L779.9 232.7 L761.9 236.0 L743.9 239.4 L725.8 242.9 L707.8 246.3 L689.7 249.9 L671.6 253.4 L653.5 256.9 L635.3 260.4 L617.2 263.9 L599.0 267.4 L580.8 270.9 L562.7 274.4 L544.5 277.8 L526.3 281.1 L508.0 284.4 L489.8 287.6 L471.6 290.7 L453.4 293.8 L435.2 296.7 L416.9 299.6 L398.7 302.4 L380.5 305.0 L362.3 307.5 L344.1 309.9 L325.8 312.1 L307.6 314.2 L289.4 316.2 L271.3 318.0 L253.1 319.7 L234.9 321.2 L216.8 322.5 L198.6 323.7 L180.5 324.7 L162.4 325.6 L144.3 326.2 L126.2 326.7 L108.1 327.1 L90.1 327.2 L72.0 327.2 L54.0 327.1 L36.0 326.7 L18.0 326.3 L0.0 325.8 Z" fill="url(#a3)"/>
  <path d="M0.0 121.0 L18.0 123.3 L36.0 125.6 L54.1 128.0 L72.1 130.5 L90.1 133.1 L108.2 135.7 L126.2 138.4 L144.3 141.1 L162.3 143.9 L180.4 146.7 L198.4 149.6 L216.5 152.6 L234.5 155.5 L252.6 158.5 L270.6 161.5 L288.7 164.6 L306.7 167.6 L324.8 170.7 L342.8 173.7 L360.9 176.8 L378.9 179.8 L397.0 182.8 L415.0 185.8 L433.0 188.8 L451.1 191.7 L469.1 194.6 L487.1 197.5 L505.2 200.3 L523.2 203.1 L541.2 205.7 L559.2 208.4 L577.2 210.9 L595.2 213.4 L613.2 215.8 L631.2 218.1 L649.2 220.3 L667.2 222.5 L685.2 224.5 L703.1 226.4 L721.1 228.3 L739.1 230.0 L757.0 231.6 L775.0 233.1 L792.9 234.5 L810.9 235.7 L828.8 236.8 L846.7 237.8 L864.6 238.7 L882.6 239.5 L900.5 240.1 L918.4 240.6 L936.3 240.9 L954.2 241.1 L972.1 241.2 L990.0 241.2 L1007.9 241.0 L1025.8 240.7 L1043.7 240.2 L1061.6 239.7 L1079.5 238.9 L1097.4 238.1 L1115.3 237.1 L1133.2 236.0 L1151.1 234.8 L1169.0 233.4 L1186.9 232.0 L1204.8 230.4 L1222.7 228.6 L1240.6 226.8 L1258.5 224.9 L1276.4 222.8 L1294.3 220.7 L1312.2 218.4 L1330.1 216.1 L1348.1 213.7 L1366.0 211.2 L1383.9 208.6 L1401.9 205.9 L1419.8 203.1 L1437.8 200.3 L1455.7 197.4 L1473.7 194.5 L1491.7 191.5 L1509.6 188.4 L1527.6 185.3 L1545.6 182.2 L1563.6 179.1 L1581.6 175.9 L1599.6 172.7 L1617.6 169.5 L1635.6 166.3 L1653.6 163.0 L1671.7 159.8 L1689.7 156.6 L1707.7 153.4 L1725.8 150.3 L1743.8 147.2 L1761.8 144.1 L1779.9 141.0 L1797.9 138.0 L1816.0 135.0 L1834.1 132.1 L1852.1 129.3 L1870.2 126.5 L1888.3 123.8 L1906.3 121.2 L1924.4 118.7 L1942.5 116.2 L1960.6 113.9 L1978.7 111.6 L1996.7 109.5 L2014.8 107.4 L2032.9 105.5 L2051.0 103.7 L2069.1 101.9 L2087.1 100.4 L2105.2 98.9 L2123.3 97.6 L2141.4 96.4 L2159.5 95.3 L2177.5 94.4 L2195.6 93.6 L2213.7 92.9 L2231.7 92.4 L2249.8 92.0 L2267.9 91.8 L2285.9 91.7 L2304.0 91.7 L2322.0 91.9 L2340.1 92.2 L2358.1 92.7 L2376.1 93.3 L2394.2 94.1 L2412.2 95.0 L2430.2 96.0 L2448.3 97.2 L2466.3 98.5 L2484.3 99.9 L2502.3 101.5 L2520.3 103.2 L2538.3 105.0 L2556.3 106.9 L2574.3 109.0 L2592.3 111.2 L2610.3 113.4 L2628.3 115.8 L2646.3 118.3 L2664.3 120.9 L2682.2 123.6 L2700.2 126.4 L2718.2 129.2 L2736.2 132.1 L2754.2 135.1 L2772.1 138.2 L2790.1 141.3 L2808.1 144.5 L2826.1 147.8 L2844.0 151.0 L2862.0 154.3 L2880.0 157.6 L2880.0 157.6 L2862.0 154.5 L2844.0 151.4 L2825.9 148.4 L2807.9 145.5 L2789.9 142.6 L2771.9 139.8 L2753.8 137.1 L2735.8 134.5 L2717.8 131.9 L2699.8 129.4 L2681.8 127.0 L2663.7 124.8 L2645.7 122.6 L2627.7 120.5 L2609.7 118.5 L2591.7 116.7 L2573.7 114.9 L2555.7 113.3 L2537.7 111.8 L2519.7 110.4 L2501.7 109.2 L2483.7 108.0 L2465.7 107.1 L2447.7 106.2 L2429.8 105.5 L2411.8 104.9 L2393.8 104.5 L2375.9 104.2 L2357.9 104.0 L2339.9 104.0 L2322.0 104.1 L2304.0 104.4 L2286.1 104.8 L2268.1 105.3 L2250.2 106.0 L2232.3 106.8 L2214.3 107.8 L2196.4 108.9 L2178.5 110.1 L2160.5 111.5 L2142.6 113.0 L2124.7 114.6 L2106.8 116.4 L2088.9 118.2 L2070.9 120.2 L2053.0 122.3 L2035.1 124.5 L2017.2 126.9 L1999.3 129.3 L1981.3 131.8 L1963.4 134.4 L1945.5 137.1 L1927.6 139.9 L1909.7 142.8 L1891.7 145.8 L1873.8 148.8 L1855.9 151.9 L1837.9 155.1 L1820.0 158.3 L1802.1 161.5 L1784.1 164.8 L1766.2 168.2 L1748.2 171.6 L1730.2 175.0 L1712.3 178.4 L1694.3 181.8 L1676.3 185.3 L1658.4 188.7 L1640.4 192.1 L1622.4 195.6 L1604.4 199.0 L1586.4 202.4 L1568.4 205.7 L1550.4 209.1 L1532.4 212.3 L1514.4 215.6 L1496.3 218.8 L1478.3 221.9 L1460.3 224.9 L1442.2 227.9 L1424.2 230.8 L1406.1 233.7 L1388.1 236.4 L1370.0 239.1 L1351.9 241.6 L1333.9 244.1 L1315.8 246.5 L1297.7 248.7 L1279.6 250.8 L1261.5 252.8 L1243.4 254.7 L1225.3 256.5 L1207.2 258.1 L1189.1 259.6 L1171.0 261.0 L1152.9 262.2 L1134.8 263.3 L1116.7 264.3 L1098.6 265.1 L1080.5 265.7 L1062.4 266.3 L1044.3 266.6 L1026.2 266.8 L1008.1 266.9 L990.0 266.8 L971.9 266.6 L953.8 266.2 L935.7 265.7 L917.6 265.0 L899.5 264.2 L881.4 263.2 L863.4 262.1 L845.3 260.8 L827.2 259.4 L809.1 257.9 L791.1 256.2 L773.0 254.4 L755.0 252.5 L736.9 250.4 L718.9 248.2 L700.9 245.9 L682.8 243.5 L664.8 241.0 L646.8 238.4 L628.8 235.6 L610.8 232.8 L592.8 229.9 L574.8 226.9 L556.8 223.8 L538.8 220.7 L520.8 217.4 L502.8 214.1 L484.9 210.8 L466.9 207.4 L448.9 203.9 L431.0 200.4 L413.0 196.9 L395.0 193.4 L377.1 189.8 L359.1 186.2 L341.2 182.6 L323.2 179.0 L305.3 175.4 L287.3 171.8 L269.4 168.2 L251.4 164.7 L233.5 161.2 L215.5 157.7 L197.6 154.2 L179.6 150.8 L161.7 147.5 L143.7 144.2 L125.8 141.0 L107.8 137.9 L89.9 134.8 L71.9 131.8 L53.9 128.9 L36.0 126.2 L18.0 123.5 L0.0 121.0 Z" fill="url(#a4)"/>
</svg>
